<svg xmlns="http://www.w3.org/2000/svg" width="270.31" height="75.839" viewBox="0 0 270.31 75.839">
  <text id="Faça_a_consulta_online_Aponte_a_câmera_do_seu_celular_aqui:" data-name="Faça a consulta online
Aponte a câmera do seu
celular aqui:" transform="translate(270.31 20.982)" fill="#fff" font-size="16" font-family="Montserrat-Light, Montserrat" font-weight="300"><tspan x="-175.856" y="0">Faça a consulta online</tspan><tspan x="-193.072" y="20.8">Aponte a câmera do seu</tspan><tspan x="-95.312" y="41.6">celular aqui:</tspan></text>
  <g id="Grupo_60" data-name="Grupo 60" transform="translate(-115.18 -176.041)">
    <path id="Caminho_91" data-name="Caminho 91" d="M165.352,219.84c0,1.5.011,2.909,0,4.32-.017,1.69.062,3.392-.109,5.067a5.727,5.727,0,0,1-5.413,4.939c-.807.031-1.745-.23-2.386.1s-.938,1.248-1.422,1.882a19.209,19.209,0,0,1-8.1,5.782c-1.643.7-3.251,1.489-4.86,2.27a.908.908,0,0,1-1.309-.313.763.763,0,0,1,.277-1.174c1.311-.7,2.628-1.391,3.992-1.974,2.7-1.153,5.386-2.321,7.462-4.5.567-.594,1.075-1.244,1.61-1.869l-.086-.207h-.86q-8.6,0-17.2,0A5.87,5.87,0,0,1,130.837,228q.007-15.186,0-30.373c0-1.11.065-2.221.022-3.328a6.2,6.2,0,0,0-.334-1.841,1.765,1.765,0,0,0-1.98-1.291,1.923,1.923,0,0,0-1.522,1.762c-.151,1.379-.185,2.774-.405,4.14a47.778,47.778,0,0,1-3.1,10.083c-.664,1.661-1.257,3.351-1.842,5.041a7.913,7.913,0,0,0,.121,5.33,37.023,37.023,0,0,1,2.235,9.243,3.181,3.181,0,0,0,1.014,2.081c1.27,1.332,2.475,2.726,3.729,4.073,2.407,2.586,4.835,5.153,7.246,7.735q2.919,3.128,5.818,6.276c.7.762.683,1.145-.068,1.846q-1.357,1.265-2.719,2.525c-.732.674-1.26.752-1.692.265-.406-.457-.27-.967.425-1.609.758-.7,1.514-1.4,2.34-2.166-.464-.505-.884-.963-1.3-1.42q-5.465-5.93-10.933-11.858c-1.454-1.572-2.952-3.105-4.391-4.691-.415-.457-.671-.51-1.146-.074-1.73,1.586-3.5,3.128-5.258,4.686a3.658,3.658,0,0,1-.4.343.892.892,0,0,1-1.239-.093.854.854,0,0,1,.058-1.286c.559-.546,1.161-1.049,1.745-1.569,1.415-1.258,2.8-2.558,4.262-3.754a1.65,1.65,0,0,0,.652-1.836c-.5-2.108-.988-4.218-1.528-6.316-.264-1.024-.647-2.017-.947-3.033a9.841,9.841,0,0,1,.536-6.229c.986-2.753,2.1-5.462,3.1-8.207a27.826,27.826,0,0,0,1.792-9.088c.051-2.582,1.839-4.278,4.172-4.02a10.138,10.138,0,0,1,1.513.414c.012-.278.034-.542.034-.8q0-3.333,0-6.666a5.844,5.844,0,0,1,6.255-6.245q10.493-.013,20.986,0a13.637,13.637,0,0,1,2.638.15,5.777,5.777,0,0,1,4.628,5.693c.013.745,0,1.491,0,2.051a15.283,15.283,0,0,1,3.155-.3,3.78,3.78,0,0,1,3.216,3.107,3.988,3.988,0,0,1-1.747,4.143c-1.307.86-2.626,1.7-3.965,2.513a1.136,1.136,0,0,0-.668,1.206,15.083,15.083,0,0,1,.012,1.585,15.423,15.423,0,0,1,2.155-.353,3.771,3.771,0,0,1,3.767,2.816,3.91,3.91,0,0,1-1.553,4.328c-.644.441-1.308.851-2.073,1.347,1.844.867,2.932,2.188,2.72,4.228-.208,2.009-1.508,3.09-3.559,3.614,2.184,1.039,3.166,2.642,2.589,4.845C168.9,218.941,167.4,219.769,165.352,219.84Zm-32.668,2.171h1.038q14.164,0,28.327,0c1.75,0,1.454.257,1.5-1.54.012-.46-.086-.721-.585-.879a3.357,3.357,0,0,1-2.024-1.724.826.826,0,0,0-.889-.505c-.908.022-1.818,0-2.727.008-.635,0-1.1-.214-1.152-.915-.043-.579.369-.914,1.119-.925.858-.012,1.718.02,2.575-.02a.876.876,0,0,0,.639-.34c.359-.648.644-1.336.972-2.041a3.837,3.837,0,0,1-2.708-3.817c.049-2.147,1.385-3.361,3.6-3.975a3.506,3.506,0,0,1-.43-.227,3.891,3.891,0,0,1-1.364-4.776,4.6,4.6,0,0,1,2.345-2.353,1.144,1.144,0,0,0,.672-1.071c-.027-4.24-.047-8.48-.031-12.72,0-.654-.222-.793-.828-.792q-14.618.024-29.237.014c-.264,0-.528.034-.811.054Zm-.027,1.823c0,1.5.011,2.876,0,4.258a4.047,4.047,0,0,0,4.134,4.248q11.314.024,22.628,0a4.038,4.038,0,0,0,4.118-4.058c.034-1.157.007-2.315,0-3.473,0-.969,0-.97-1-.97l-28.614,0Zm30.84-42.329c-.079-.366-.113-.613-.186-.848a4.054,4.054,0,0,0-4.071-2.783c-3.357-.015-6.715-.011-10.072-.011-4.114,0-8.228-.016-12.342.017a3.879,3.879,0,0,0-4.061,3.624Zm.832,22.449a2.328,2.328,0,0,0,.706-.208c1.29-.786,2.592-1.559,3.825-2.428a2.033,2.033,0,0,0,.42-2.667,2,2,0,0,0-2.63-.812c-1.334.756-2.625,1.6-3.878,2.481a1.871,1.871,0,0,0-.585,2.249A2.151,2.151,0,0,0,164.329,203.954Zm-1.657,7.637c1.665-.568,3.361-1.06,4.981-1.736a1.89,1.89,0,0,0,.8-2.376,2.012,2.012,0,0,0-2.118-1.385,45.832,45.832,0,0,0-4.674,1.5,1.919,1.919,0,0,0-.98,2.317A2.471,2.471,0,0,0,162.672,211.592Zm2.684-19.915c1.416-.916,2.673-1.657,3.846-2.514a2.061,2.061,0,0,0,.406-2.795,2.614,2.614,0,0,0-4.178.138.584.584,0,0,0-.071.287C165.354,188.348,165.355,189.9,165.355,191.677Zm-.4,26.449.038-.161c.3,0,.607.025.907,0a2.013,2.013,0,0,0,1.822-1.9,1.9,1.9,0,0,0-1.646-2.033,8.744,8.744,0,0,0-2.255.061,1.716,1.716,0,0,0-1.468,1.445,1.784,1.784,0,0,0,.834,2.093A8.394,8.394,0,0,0,164.952,218.126Z" transform="translate(0 0)" fill="#fff"/>
    <path id="Caminho_92" data-name="Caminho 92" d="M153.369,565.492a1.712,1.712,0,0,1-1.595-1.623,1.578,1.578,0,1,1,3.155.071A1.633,1.633,0,0,1,153.369,565.492Z" transform="translate(-31.051 -327.74)" fill="#fff"/>
    <path id="Caminho_100" data-name="Caminho 100" d="M278.691,300.869c0,1.857.007,3.668-.015,5.479,0,.132-.217.374-.336.376-1.81.024-3.619.017-5.479.017v-5.872Zm-4.212,4.179c.791,0,1.491.023,2.187-.02.138-.009.354-.256.377-.416.287-2,.119-2.182-1.876-2.122a1.494,1.494,0,0,1-.151,0c-.379-.028-.551.133-.541.526C274.491,303.645,274.479,304.272,274.479,305.048Z" transform="translate(-133.796 -105.92)" fill="#fff"/>
    <path id="Caminho_101" data-name="Caminho 101" d="M366.276,306.66c-1.816,0-3.6.009-5.385-.017a.575.575,0,0,1-.41-.382c-.028-1.812-.018-3.625-.018-5.494h5.814Zm-1.592-2.994c0-1.263,0-1.269-1.288-1.261-1.445.009-1.271-.164-1.269,1.305,0,1.387-.2,1.218,1.232,1.273C364.993,305.046,364.644,304.954,364.684,303.666Z" transform="translate(-208.127 -105.834)" fill="#fff"/>
    <path id="Caminho_102" data-name="Caminho 102" d="M272.834,378.284h5.778v5.839h-5.778Zm1.66,4.115c2.336.427,2.686.154,2.542-1.919,0-.025.009-.061,0-.074-.164-.163-.317-.446-.5-.466-2.088-.229-2.115-.2-2.076,1.9C274.46,382.01,274.479,382.183,274.494,382.4Z" transform="translate(-133.774 -171.609)" fill="#fff"/>
    <path id="Caminho_103" data-name="Caminho 103" d="M306.109,308.143h2.525c0-1.289-.007-2.489,0-3.688.009-1.256-.185-1.174,1.175-1.18,1.051,0,1.052,0,1.052-1.073,0-.652,0-1.3,0-2.016h1.6v4.759a13.171,13.171,0,0,1-1.321-.008c-.649-.065-.9.145-.868.835.053,1.307.015,2.618.015,3.983h-4.184Z" transform="translate(-162.009 -105.341)" fill="#fff"/>
    <path id="Caminho_104" data-name="Caminho 104" d="M243.43,271.094c0,.938.006,1.787,0,2.635-.008.811-.311,1.189-.94,1.166-.738-.028-.9-.525-.894-1.143,0-1.107-.009-2.215,0-3.322.01-.905.326-1.206,1.245-1.21,1.132-.006,2.265,0,3.4,0,.614,0,1.031.241,1.077.9.041.586-.37.959-1.087.974C245.33,271.108,244.43,271.094,243.43,271.094Z" transform="translate(-107.263 -79.063)" fill="#fff"/>
    <path id="Caminho_105" data-name="Caminho 105" d="M244.483,416.55c-.605,0-1.211,0-1.816,0a.946.946,0,0,1-1.074-1c-.023-1.286-.018-2.573,0-3.859a.82.82,0,0,1,.894-.9.838.838,0,0,1,.926.948c0,.656,0,1.312.005,1.967,0,1.008,0,1.008.976,1.01.656,0,1.312,0,1.968.006.587.009.982.27.982.9a.876.876,0,0,1-.97.928C245.745,416.567,245.113,416.549,244.483,416.55Z" transform="translate(-107.251 -199.186)" fill="#fff"/>
    <path id="Caminho_106" data-name="Caminho 106" d="M389.107,271.092c-.823,0-1.575.006-2.328,0-.614-.007-1.109-.19-1.138-.918-.026-.64.348-.947,1.161-.953,1.033-.008,2.067,0,3.1,0,.622,0,1.078.271,1.1.9.034,1.256-.022,2.515-.044,3.773a.761.761,0,0,1-.881.809.745.745,0,0,1-.828-.782C389.209,273.011,389.158,272.111,389.107,271.092Z" transform="translate(-229.493 -79.062)" fill="#fff"/>
    <path id="Caminho_107" data-name="Caminho 107" d="M328.233,381.531h1.6v3.416c-.8,0-1.623.032-2.44-.011-.6-.032-.821.181-.772.776.041.5.008,1,.008,1.563h-1.659c0-1.232-.012-2.477.023-3.721,0-.1.334-.254.518-.263.678-.032,1.36-.041,2.038-.006.53.028.739-.164.687-.692C328.208,382.274,328.233,381.947,328.233,381.531Z" transform="translate(-178.014 -174.364)" fill="#fff"/>
    <path id="Caminho_108" data-name="Caminho 108" d="M345.671,352.959v-1.622h4.5v1.793l2.131.1a2.245,2.245,0,0,1,.1.336c.131,1.288.117,1.3-1.185,1.3h-2.663v-1.909Z" transform="translate(-195.578 -148.744)" fill="#fff"/>
    <path id="Caminho_109" data-name="Caminho 109" d="M376.71,396.24h-3.921V394.6c.544,0,1.07-.031,1.59.008.545.041.734-.185.672-.7a3.753,3.753,0,0,1,0-.454c0-.956,0-.931.963-.941.505-.005.73.129.709.679C376.684,394.169,376.71,395.152,376.71,396.24Z" transform="translate(-218.588 -183.679)" fill="#fff"/>
    <path id="Caminho_110" data-name="Caminho 110" d="M272.891,351.613v1.809a6.814,6.814,0,0,1-1.82-.227c-.161-.063-.194-1.144-.022-1.229A6.671,6.671,0,0,1,272.891,351.613Z" transform="translate(-132.162 -148.978)" fill="#fff"/>
    <path id="Caminho_111" data-name="Caminho 111" d="M326.421,505.539a2.08,2.08,0,0,1-2.1,2.04,2,2,0,0,1-2.011-2.025,2.044,2.044,0,0,1,2.034-2.089A2.111,2.111,0,0,1,326.421,505.539Z" transform="translate(-175.754 -277.829)" fill="#fff"/>
  </g>
</svg>
